<svg xmlns="http://www.w3.org/2000/svg" width="180" height="48" viewBox="0 0 180 48">
    <g fill="none" fill-rule="nonzero">
        <path fill="#005EB8" d="M3.808 31.819a.794.794 0 0 1-.544-.248.795.795 0 0 1-.248-.544V4.602H.791a.794.794 0 0 1-.544-.247A.795.795 0 0 1 0 3.81V1.09C0 .89.099.693.247.544A.794.794 0 0 1 .791.297h9.94c.198 0 .395.099.544.247a.795.795 0 0 1 .247.545V3.81a.795.795 0 0 1-.247.545.794.794 0 0 1-.544.247H8.505v26.425a.795.795 0 0 1-.247.544.794.794 0 0 1-.544.248H3.808zM22.846 17.32c1.088.198 1.83.643 2.324 1.435.495.742.693 1.93.693 3.513v8.858a.795.795 0 0 1-.248.544.794.794 0 0 1-.544.248h-3.956a.794.794 0 0 1-.544-.248.795.795 0 0 1-.247-.544V20.437c0-.297-.099-.544-.297-.693-.197-.148-.395-.247-.593-.247h-.89v11.678a.795.795 0 0 1-.247.545.794.794 0 0 1-.544.247h-3.956a.794.794 0 0 1-.544-.247.795.795 0 0 1-.248-.545V1.287c0-.198.1-.396.248-.545a.794.794 0 0 1 .544-.247h7.318c1.583 0 2.77.396 3.511 1.138.742.742 1.138 2.078 1.138 3.86v6.977c0 1.584-.248 2.771-.693 3.514-.395.643-1.137 1.138-2.225 1.336zm-3.313-2.03c.198 0 .396-.098.593-.247.198-.148.297-.396.297-.692V5.443c0-.346-.099-.594-.247-.742-.198-.148-.396-.247-.594-.247h-.94V15.34h.891v-.05zM27.643 31.819a.794.794 0 0 1-.544-.248c-.148-.148-.198-.346-.148-.544l2.967-29.889c.049-.198.098-.396.296-.544a.794.794 0 0 1 .544-.248h6.775c.198 0 .396.1.544.248.148.148.247.346.297.544l2.868 29.889c.05.198-.05.396-.198.544-.148.149-.297.248-.544.248h-3.709a.794.794 0 0 1-.544-.248 1.18 1.18 0 0 1-.296-.544l-.544-7.126h-2.72l-.544 7.126a.795.795 0 0 1-.247.544.794.794 0 0 1-.544.248h-3.71zm6.478-26.03l-1.039 13.856h2.077L34.121 5.79zM44.456 31.819a.794.794 0 0 1-.544-.248 1.18 1.18 0 0 1-.297-.544L40.648 1.138c0-.198.05-.396.198-.544.149-.149.297-.248.544-.248h4.154c.198 0 .396.1.544.248a.795.795 0 0 1 .247.544l1.434 22.565 1.434-22.565c0-.198.1-.396.248-.544a.794.794 0 0 1 .544-.248h4.104c.198 0 .396.1.544.248.148.148.198.346.198.544l-2.868 29.889c-.05.198-.1.396-.297.544a.794.794 0 0 1-.544.248h-6.676zM64.78 27.563c.198 0 .396.099.544.247a.795.795 0 0 1 .247.545v2.721a.795.795 0 0 1-.247.545.794.794 0 0 1-.544.247h-8.06a.794.794 0 0 1-.544-.247.795.795 0 0 1-.247-.545V1.188c0-.198.098-.396.247-.545a.794.794 0 0 1 .544-.247h8.06c.198 0 .396.099.544.247a.795.795 0 0 1 .247.545v2.721a.795.795 0 0 1-.247.545.794.794 0 0 1-.544.247h-3.362v9.056h2.967c.197 0 .395.099.544.247a.795.795 0 0 1 .247.544v2.722a.795.795 0 0 1-.247.544.794.794 0 0 1-.544.248h-2.967v9.6h3.362v-.1zM68.093 31.819a.794.794 0 0 1-.544-.248.795.795 0 0 1-.247-.544V1.138c0-.198.1-.396.247-.544a.794.794 0 0 1 .544-.248h3.956c.198 0 .396.1.544.248a.795.795 0 0 1 .248.544v26.425h3.214c.198 0 .396.099.544.247a.795.795 0 0 1 .247.545v2.721a.795.795 0 0 1-.247.545.794.794 0 0 1-.544.247h-7.962v-.05z"/>
        <path fill="#FA7823" d="M88.022 17.32c1.088.198 1.83.643 2.324 1.435.495.742.692 1.93.692 3.513v8.858a.795.795 0 0 1-.247.544.794.794 0 0 1-.544.248h-3.956a.794.794 0 0 1-.544-.248.795.795 0 0 1-.247-.544V20.437c0-.297-.099-.544-.297-.693-.198-.148-.395-.247-.593-.247h-.89v11.678a.795.795 0 0 1-.247.545.794.794 0 0 1-.544.247h-3.956a.794.794 0 0 1-.544-.247.795.795 0 0 1-.248-.545V1.287c0-.198.1-.396.248-.545a.794.794 0 0 1 .544-.247h7.318c1.583 0 2.77.396 3.511 1.138.742.742 1.138 2.078 1.138 3.86v6.977c0 1.584-.248 2.771-.693 3.514-.346.643-1.137 1.138-2.225 1.336zm-3.313-2.03c.198 0 .395-.098.593-.247.198-.148.297-.396.297-.692V5.443c0-.346-.099-.594-.247-.742-.198-.148-.396-.247-.594-.247h-.94V15.34h.89v-.05zM102.066 27.563c.198 0 .396.099.544.247a.795.795 0 0 1 .247.545v2.721a.795.795 0 0 1-.247.545.794.794 0 0 1-.544.247h-8.06a.794.794 0 0 1-.544-.247.795.795 0 0 1-.248-.545V1.188c0-.198.1-.396.248-.545a.794.794 0 0 1 .543-.247h8.06c.199 0 .397.099.545.247a.795.795 0 0 1 .247.545v2.721a.795.795 0 0 1-.247.545.794.794 0 0 1-.544.247h-3.363v9.056h2.967c.198 0 .396.099.544.247a.795.795 0 0 1 .248.544v2.722a.795.795 0 0 1-.248.544.794.794 0 0 1-.544.248h-2.967v9.6h3.363v-.1zM117.297 15.44c0 .89-.1 1.632-.248 2.275-.148.594-.445 1.09-.84 1.436-.396.346-.99.593-1.682.791-.692.149-1.631.248-2.72.248h-1.73v10.886a.795.795 0 0 1-.247.545.794.794 0 0 1-.544.247h-3.956a.794.794 0 0 1-.544-.247.795.795 0 0 1-.248-.545V1.188c0-.198.1-.396.248-.545a.794.794 0 0 1 .544-.247h7.318c1.583 0 2.77.396 3.511 1.138.742.742 1.138 2.029 1.138 3.86v10.045zm-6.33.642c.198 0 .396-.098.593-.247.198-.148.297-.396.297-.693V5.394c0-.347-.099-.594-.247-.742-.198-.149-.396-.248-.594-.248h-.94v11.678h.891zM125.456 28.107c.198 0 .396-.099.593-.247.198-.149.297-.396.297-.693V1.138c0-.198.1-.396.247-.544a.794.794 0 0 1 .544-.248h3.956c.198 0 .396.1.544.248a.795.795 0 0 1 .248.544v26.029c0 1.88-.347 3.167-1.039 3.91-.692.742-1.78 1.088-3.313 1.088h-3.758c-1.583 0-2.77-.396-3.511-1.138-.742-.792-1.138-2.079-1.138-3.86V1.138c0-.198.1-.396.248-.544a.794.794 0 0 1 .544-.248h3.956c.197 0 .395.1.544.248a.795.795 0 0 1 .247.544v26.029c0 .297.099.544.297.693.098.198.296.247.494.247M143.703 15.538c1.088.198 1.83.643 2.324 1.435.495.742.693 1.93.693 3.514v6.383c0 1.831-.396 3.118-1.138 3.86-.741.742-1.928 1.138-3.51 1.138h-7.32a.794.794 0 0 1-.543-.247.795.795 0 0 1-.247-.545V1.188c0-.198.098-.396.247-.545a.794.794 0 0 1 .544-.247h7.318c1.583 0 2.77.396 3.511 1.138.742.742 1.138 2.029 1.138 3.86v5.196c0 1.583-.247 2.77-.693 3.513-.445.742-1.236 1.237-2.324 1.435zm-3.313-2.029c.198 0 .396-.099.594-.247.197-.149.296-.396.296-.693V5.394c0-.347-.099-.594-.296-.742-.198-.149-.396-.248-.594-.248h-.94v9.105h.94zm0 14.301c.198 0 .396-.099.594-.247.197-.149.296-.396.296-.742v-8.215c0-.297-.099-.544-.296-.693-.198-.148-.396-.247-.594-.247h-.89V27.86h.89v-.05zM149.489 31.819a.794.794 0 0 1-.544-.248.795.795 0 0 1-.247-.544V1.138c0-.198.099-.396.247-.544a.794.794 0 0 1 .544-.248h3.956c.198 0 .396.1.544.248a.795.795 0 0 1 .247.544v26.425h3.215c.197 0 .395.099.544.247a.795.795 0 0 1 .247.545v2.721a.795.795 0 0 1-.247.545.794.794 0 0 1-.544.247h-7.962v-.05zM160.467 31.819a.794.794 0 0 1-.544-.248.795.795 0 0 1-.247-.544V1.138c0-.198.099-.396.247-.544a.794.794 0 0 1 .544-.248h3.956c.198 0 .396.1.544.248a.795.795 0 0 1 .247.544v29.889a.795.795 0 0 1-.247.544.794.794 0 0 1-.544.248h-3.956zM173.67 28.107c.198 0 .396-.099.594-.247.198-.149.296-.396.296-.693v-5.938c0-.198.1-.396.248-.544a.794.794 0 0 1 .544-.248h3.758c.198 0 .395.1.544.248a.795.795 0 0 1 .247.544v5.938c0 1.88-.346 3.167-.989 3.91-.692.742-1.78 1.088-3.313 1.088h-3.61c-1.582 0-2.77-.396-3.511-1.138-.742-.792-1.137-2.079-1.137-3.86V4.997c0-1.88.346-3.166.989-3.908C169.022.346 170.11 0 171.643 0h3.56c1.632 0 2.819.396 3.56 1.138.742.742 1.138 2.078 1.138 3.86v4.85a.795.795 0 0 1-.247.544.794.794 0 0 1-.544.247h-3.758a.794.794 0 0 1-.544-.247.795.795 0 0 1-.248-.545v-4.85c0-.345-.098-.593-.247-.741-.198-.149-.395-.248-.593-.248-.198 0-.396.1-.594.248-.197.148-.296.396-.296.742v22.169c0 .297.099.544.296.693.149.198.347.247.544.247M29.67 40.577H3.808a.76.76 0 0 0-.742.743v3.562a.76.76 0 0 0 .742.743H29.67a.76.76 0 0 0 .742-.743V41.32a.76.76 0 0 0-.742-.743M179.11 40.577h-25.813a.76.76 0 0 0-.742.743v3.562a.76.76 0 0 0 .742.743h25.862a.76.76 0 0 0 .742-.743V41.32c-.05-.396-.346-.743-.791-.743"/>
        <path fill="#005EB8" d="M39.214 43.992v3.513h-1.83v-3.513l-1.928-5.79h2.077l.742 3.365.79-3.365h2.078zM46.137 46.664c-.395.544-1.038.94-2.027.94-.99 0-1.632-.396-2.028-.94-.642-.792-.692-2.029-.692-3.81 0-1.782.05-3.019.692-3.81.396-.545 1.039-.94 2.028-.94.989 0 1.632.395 2.027.94.643.791.693 2.028.693 3.81 0 1.781-.05 3.018-.693 3.81m-1.434-6.532c-.099-.198-.296-.346-.643-.346-.346 0-.544.148-.642.346-.198.445-.248 1.583-.248 2.722 0 1.138.05 2.276.248 2.721.098.198.296.347.642.347.347 0 .544-.149.643-.347.248-.445.248-1.583.248-2.721 0-1.139 0-2.277-.248-2.722M52.516 46.862a2.644 2.644 0 0 1-1.928.792c-.791 0-1.434-.248-1.929-.792-.445-.446-.692-1.089-.692-1.831v-6.829h1.88v6.928c0 .594.345.841.79.841.445 0 .792-.247.792-.841v-6.928h1.879v6.829c-.1.742-.346 1.385-.792 1.83M58.203 47.505l-1.137-3.612h-.593v3.612h-1.88v-9.303h2.67c2.028 0 2.572 1.04 2.572 2.82 0 .99-.148 1.881-1.038 2.425l1.384 4.058h-1.978zm-.989-7.62h-.79v2.325h.79c.693 0 .742-.643.742-1.187 0-.545-.05-1.138-.742-1.138zM65.522 46.911c-.396.396-1.137.693-2.027.693-.94 0-1.583-.247-2.028-.693-.445-.445-.593-1.138-.593-2.078h1.879c0 .396.05.643.198.841a.833.833 0 0 0 .593.248c.297 0 .494-.1.593-.248.149-.148.198-.396.198-.792 0-.89-.148-1.039-.791-1.336l-1.187-.494c-.94-.396-1.335-.891-1.335-2.326 0-.841.297-1.584.84-2.079.446-.395.99-.593 1.731-.593.841 0 1.434.198 1.83.593.495.495.742 1.238.742 2.178h-1.88c0-.347 0-.644-.148-.841-.099-.149-.247-.248-.544-.248-.247 0-.445.1-.544.248-.098.148-.148.346-.148.643 0 .594.099.742.643.99l1.187.494c1.187.495 1.533.99 1.533 2.722-.149.99-.248 1.633-.742 2.078M71.407 39.885v2.078h2.077v1.682h-2.077v3.86h-1.88v-9.303h4.303v1.683zM79.319 46.664c-.396.544-1.039.94-2.028.94-.989 0-1.632-.396-2.027-.94-.643-.792-.693-2.029-.693-3.81 0-1.782.05-3.019.693-3.81.395-.545 1.038-.94 2.027-.94.99 0 1.632.395 2.028.94.643.791.692 2.028.692 3.81 0 1.781-.05 3.018-.692 3.81m-1.434-6.532c-.1-.198-.297-.346-.643-.346-.346 0-.544.148-.643.346-.198.445-.247 1.583-.247 2.722 0 1.138.05 2.276.247 2.721.099.198.297.347.643.347.346 0 .544-.149.643-.347.247-.445.247-1.583.247-2.721 0-1.139 0-2.277-.247-2.722M84.758 47.505l-1.137-3.612h-.594v3.612h-1.879v-9.303h2.67c2.028 0 2.572 1.04 2.572 2.82 0 .99-.148 1.881-1.038 2.425l1.384 4.058h-1.978zm-.94-7.62h-.79v2.325h.79c.693 0 .742-.643.742-1.187 0-.545-.049-1.138-.741-1.138zM92.967 39.885v7.62h-1.88v-7.62h-1.532v-1.683h4.994v1.683zM98.901 47.505v-3.91h-1.533v3.91h-1.83v-9.303h1.83v3.76h1.533v-3.76h1.88v9.303zM102.214 47.505v-9.303h4.302v1.683h-2.423v2.078h2.077v1.682h-2.077v2.178h2.423v1.682zM114.725 47.505v-4.85l-1.038 3.217h-.94l-.989-3.216v4.85h-1.879v-9.304h1.632l1.73 4.553 1.682-4.553h1.632v9.303zM122.044 47.505l-.297-1.435h-2.126l-.297 1.435h-1.928l2.373-9.303h1.83l2.374 9.303h-1.929zm-1.335-6.581l-.742 3.464h1.434l-.692-3.464zM128.62 47.505l-1.334-3.365-.643 1.237v2.128h-1.83v-9.303h1.83v4.008l1.78-4.008h1.88l-1.88 3.86 2.176 5.443zM131.39 38.202h1.879v9.303h-1.879zM138.511 47.505l-1.978-4.552v4.552h-1.83v-9.303h1.632l1.929 4.553v-4.553h1.83v9.303zM144 47.604c-.989 0-1.632-.396-2.027-.94-.643-.792-.693-2.029-.693-3.81 0-1.782.05-3.019.693-3.81.395-.545 1.038-.94 2.027-.94.791 0 1.385.247 1.83.692.494.495.741 1.237.79 2.078h-1.878c0-.396-.05-1.088-.791-1.088-.347 0-.544.148-.643.346-.248.445-.248 1.583-.248 2.722 0 1.138.05 2.276.248 2.721.099.198.296.347.643.347.593 0 .79-.594.79-1.089v-.99h-.79V42.36h2.62v2.375c.1 1.88-.94 2.87-2.571 2.87"/>
    </g>
</svg>
